<svg viewBox="0 0 176.58 176.58"
  xmlns="http://www.w3.org/2000/svg"
  xmlns:xlink="http://www.w3.org/1999/xlink">
  <linearGradient id="a" gradientTransform="matrix(.70710678 .70710678 -.70710678 .70710678 117.58 -160.86)" gradientUnits="userSpaceOnUse" x1="153.6" x2="299.43" y1="323.65" y2="182.68">
    <stop offset="0" stop-color="#f7cf2c"/>
    <stop offset="1" stop-color="#ef5552"/>
  </linearGradient>
  <linearGradient id="b" x1="107.3" x2="253.12" xlink:href="#a" y1="275.74" y2="134.78"/>
  <path d="m107.77 187.82a75 75 0 0 1 -14.38-6.95l-1.84 1.83-27.65-20.87 5.23-5.23a74.36 74.36 0 0 1 -7-14.37c-.23.22-.47.41-.69.63l-15.28 15.32a32.29 32.29 0 1 0 45.66 45.67l15.31-15.33c.24-.22.41-.47.64-.7zm-26.66 5.32a17 17 0 0 1 -4.3 3.13l-24.65-18.61a17.41 17.41 0 0 1 2.76-6.46l27.44 20.7zm8.28-8.28-4.87 4.87-27.65-20.86 4.88-4.87zm-32.54 8.29a17.06 17.06 0 0 1 -5-11.93l21.62 16.33a17.16 17.16 0 0 1 -16.62-4.4z" fill="url(#a)" transform="translate(-36.71 -36.71)"/>
  <path d="m191.16 58.84a75.66 75.66 0 0 0 -124.71 79.16 75.22 75.22 0 0 0 31.22 38.63 73.77 73.77 0 0 0 14.37 7 75.66 75.66 0 0 0 79.12-124.7zm-71.51 111.28a60.74 60.74 0 0 1 -14.08-6.48 62.22 62.22 0 0 1 -6.95-5.07l7.57-7.57c4.38-4.36 2.57-9.08.9-11.1l-7.78-7.77a2.45 2.45 0 0 1 .18-4 3.77 3.77 0 0 1 2.27-1.16 3.54 3.54 0 0 1 2.55 1.26l17.15 17.15a7.9 7.9 0 0 0 5.29 2.51 7.22 7.22 0 0 0 5.33-2.29 6.27 6.27 0 0 0 2.24-4.24 6.2 6.2 0 0 0 -2-4.74l-1.91-2-14.59-14.57a3.39 3.39 0 0 1 -1.12-2.11 3.73 3.73 0 0 1 1.42-2.65 2.65 2.65 0 0 1 1.71-1 3.38 3.38 0 0 1 2.37 1.25l13.5 13.49a6.55 6.55 0 0 0 4.46 2.15 6 6 0 0 0 4.49-1.89c.29-.23 2.92-2.28 3.11-5.24a5.51 5.51 0 0 0 -1.79-4.41l-5-5a4.69 4.69 0 0 1 -1.73-2.71 2.3 2.3 0 0 1 .9-1.87l2.67-2.67-2.7-2.7-2.67 2.67a6.14 6.14 0 0 0 -2 4.84 8.08 8.08 0 0 0 3 5.31l4.81 4.81a1.82 1.82 0 0 1 .69 1.44 4.67 4.67 0 0 1 -1.82 2.63 2.6 2.6 0 0 1 -1.83 1 2.83 2.83 0 0 1 -1.82-1l-13.59-13.57a6.85 6.85 0 0 0 -5.38-2.35 6.25 6.25 0 0 0 -4.27 2.26 6.57 6.57 0 0 0 0 10.1l14.42 14.42 1.92 2a2.67 2.67 0 0 1 1 1.84 2.64 2.64 0 0 1 -1 1.62 3.83 3.83 0 0 1 -2.66 1.33 4.26 4.26 0 0 1 -2.64-1.33l-17.27-17.15a7.15 7.15 0 0 0 -5.4-2.39 7.41 7.41 0 0 0 -4.93 2.41 6.46 6.46 0 0 0 -2.13 4.82 7 7 0 0 0 2.13 4.51l7.58 7.56c.23.29 2.21 2.85-.77 5.83l-7.72 7.7c-.31-.3-.62-.57-.92-.87a60.64 60.64 0 1 1 24.81 15z" fill="url(#b)" transform="translate(-36.71 -36.71)"/>
</svg>
